<svg width="131" height="110" viewBox="0 0 131 110" fill="none" xmlns="http://www.w3.org/2000/svg">
<rect y="10" width="75" height="100" rx="8" fill="#CBC393"/>
<rect x="10" width="75" height="100" rx="8" fill="#ECE2A9"/>
<rect x="28" y="17" width="50" height="3" rx="1" fill="#3D3D3D"/>
<rect x="28" y="21" width="17" height="3" rx="1" fill="#3D3D3D"/>
<circle cx="20" cy="19" r="5" fill="#FF7300"/>
<rect x="28" y="77" width="50" height="3" rx="1" fill="#3D3D3D"/>
<rect x="28" y="81" width="17" height="3" rx="1" fill="#3D3D3D"/>
<circle cx="20" cy="79" r="5" fill="#FF7300"/>
<rect x="28" y="57" width="50" height="3" rx="1" fill="#3D3D3D"/>
<rect x="28" y="61" width="17" height="3" rx="1" fill="#3D3D3D"/>
<circle cx="20" cy="59" r="5" fill="#FF7300"/>
<rect x="28" y="37" width="50" height="3" rx="1" fill="#3D3D3D"/>
<rect x="28" y="41" width="17" height="3" rx="1" fill="#3D3D3D"/>
<circle cx="20" cy="39" r="5" fill="#FF7300"/>
<path d="M108 8C108 5.79086 109.791 4 112 4H127C129.209 4 131 5.79086 131 8V84H108V8Z" fill="#FFBE31"/>
<path d="M120.373 103.433C119.992 104.117 119.008 104.117 118.627 103.433L108.205 84.7369C107.833 84.0703 108.315 83.25 109.078 83.25H129.922C130.685 83.25 131.167 84.0703 130.795 84.7369L120.373 103.433Z" fill="#FFBE31"/>
<path d="M119.5 105L111.273 90H127.727L119.5 105Z" fill="#FFE3A7"/>
<path d="M119.5 105L115.17 97.5H123.83L119.5 105Z" fill="#3D3D3D"/>
<path d="M108 8C108 5.79086 109.791 4 112 4H127C129.209 4 131 5.79086 131 8V27H108V8Z" fill="#FF4D4D"/>
<path d="M116.5 32V78" stroke="#3D3D3D" stroke-width="3" stroke-linecap="round"/>
</svg>
